Coordinates
version=1
nRows=14
nColumns=36
inDegrees=yes

Units are S.I. units (second, meters, Newtons, ...)
If the header above contains a line with 'inDegrees', this indicates whether rotational values are in degrees (yes) or radians (no).

endheader
time	pelvis_tilt	pelvis_list	pelvis_rotation	pelvis_tx	pelvis_ty	pelvis_tz	hip_flexion_r	hip_adduction_r	hip_rotation_r	knee_angle_r	knee_angle_r_beta	ankle_angle_r	subtalar_angle_r	mtp_angle_r	hip_flexion_l	hip_adduction_l	hip_rotation_l	knee_angle_l	knee_angle_l_beta	ankle_angle_l	subtalar_angle_l	mtp_angle_l	lumbar_extension	lumbar_bending	lumbar_rotation	arm_flex_r	arm_add_r	arm_rot_r	elbow_flex_r	pro_sup_r	arm_flex_l	arm_add_l	arm_rot_l	elbow_flex_l	pro_sup_l
      0.74000000	     -7.10819896	      3.85505919	     -5.02578689	      0.77908775	      0.88218720	     -0.18711062	     -0.94998405	     -4.33791516	     -1.31755576	     42.42274568	      0.74041659	     -7.35236773	      6.96534268	     -6.88860001	     30.31975579	      7.19943138	      1.92462990	     23.55803306	      0.41116524	      0.95033811	    -14.35012901	     -6.88860001	     -2.52428759	    -12.67574354	     -3.72994696	     -6.60458847	    -15.72379141	     12.95978840	     43.25269068	    106.08318403	     -0.74607927	    -15.57621794	     -6.94986166	     38.74204166	    100.78323283
      0.75000000	     -6.76082146	      3.76918677	     -4.62769850	      0.78973217	      0.88379984	     -0.18686201	      0.30087216	     -4.25048120	     -1.06380341	     45.61990432	      0.79621753	     -8.49686103	      6.93946969	     -6.89108248	     29.18374818	      7.41881648	      2.39248730	     23.65079022	      0.41278416	      1.28495240	    -14.36817930	     -6.89108248	     -3.34430514	    -13.50108624	     -4.12287776	     -7.09241823	    -15.57667238	     13.49348339	     43.37567280	    106.15257067	     -0.09467081	    -15.85218743	     -7.03310558	     38.94664668	    100.80456267
      0.76000000	     -6.99298046	      4.30284578	     -4.39365019	      0.80065005	      0.88427127	     -0.18690584	      2.64379835	     -5.28198017	     -1.69599111	     49.36273528	      0.86154226	    -10.25810677	      6.22053975	     -6.89812326	     28.48234913	      8.24953135	      2.80511046	     23.24537116	      0.40570826	      2.10714271	    -14.78934006	     -6.89812326	     -3.12228734	    -14.95369047	     -4.05849233	     -8.07006204	    -16.03412195	     15.53301609	     44.15957059	    106.44582577	      0.24967090	    -16.03725272	     -7.08192872	     39.34041983	    100.87091628
      0.77000000	     -6.97278183	      4.21170962	     -4.16302714	      0.81083951	      0.88540989	     -0.18672495	      4.53646054	     -5.19968753	     -1.51494205	     52.57497707	      0.91760645	    -11.13921626	      5.07880706	     -6.93747133	     27.61968111	      8.45104135	      3.46416649	     23.10539615	      0.40326524	      1.96164907	    -15.85108724	     -6.93747133	     -3.43366276	    -15.71453038	     -5.18052722	     -7.27126328	    -17.16449908	     21.10787798	     43.94579197	    106.95534536	     -0.03694465	    -16.36352701	     -7.79525249	     39.96322670	    101.01157520
      0.78000000	     -6.94435536	      4.21160788	     -4.04699989	      0.82087100	      0.88655219	     -0.18643123	      6.50044553	     -5.24684280	     -1.30673991	     55.71755061	      0.97245471	    -10.90128064	      4.59664102	     -6.94474136	     26.72850538	      8.63720441	      3.77231992	     22.89903344	      0.39966353	      2.55811101	    -16.09746293	     -6.94474136	     -3.79191816	    -16.46520019	     -5.36202951	     -7.70650685	    -17.58836099	     22.44940425	     44.86744335	    107.12224635	      0.40509674	    -16.49567466	     -7.95157588	     40.23330041	    101.04030111
      0.79000000	     -6.92088409	      4.07165198	     -3.97119260	      0.83062150	      0.88777983	     -0.18605111	      8.46508425	     -5.06321346	     -1.06032951	     58.62280681	      1.02316100	    -10.05136381	      4.03678932	     -6.95331477	     25.87850009	      8.62650373	      3.99843564	     22.74963912	      0.39705611	      3.03024743	    -16.35663304	     -6.95331477	     -4.15056845	    -17.02705366	     -5.64519790	     -7.86591720	    -18.21486111	     24.34643702	     45.79273970	    107.34164510	      0.78162357	    -16.67558403	     -7.98329674	     40.43389871	    101.06655331
      0.80000000	     -6.87466599	      3.88263888	     -3.90395036	      0.84014394	      0.88919274	     -0.18562924	     10.38175700	     -4.77667902	     -0.82921664	     61.23733251	      1.06879308	     -8.82647815	      3.49656862	     -6.96329151	     25.02186688	      8.52404120	      4.11939973	     22.60611000	      0.39455105	      3.47967685	    -16.49261897	     -6.96329151	     -4.56461030	    -17.49773480	     -6.07375415	     -7.77325295	    -18.82084674	     26.36060105	     46.44130283	    107.53323666	      1.05969023	    -16.86036451	     -8.01700163	     40.61355527	    101.07465511
      0.81000000	     -6.78035847	      3.71970908	     -3.82563535	      0.84954835	      0.89080736	     -0.18514718	     12.22150763	     -4.47717246	     -0.61284430	     63.56840351	      1.10947794	     -7.56250643	      2.75771638	     -6.96938833	     24.09023904	      8.42761601	      4.20505940	     22.41341716	      0.39118793	      3.97242855	    -16.47379320	     -6.96938833	     -5.04320958	    -17.98683503	     -6.51359737	     -7.70771951	    -19.17554357	     27.51602541	     46.86401614	    107.63191772	      1.38548060	    -17.06950083	     -8.08136368	     40.73888671	    101.06817109
      0.82000000	     -6.75612573	      3.45856382	     -3.68862868	      0.85880937	      0.89235702	     -0.18465238	     14.08387673	     -4.05768588	     -0.54036983	     65.61186046	      1.14514299	     -6.15380901	      2.03290018	     -6.98478188	     23.30833463	      8.15257973	      4.01276285	     22.34282709	      0.38995590	      4.61259368	    -15.96294053	     -6.98478188	     -5.39931407	    -18.34108520	     -7.15804409	     -7.33953620	    -19.68802348	     29.43484745	     47.07680506	    107.67590239	      1.47791700	    -17.28556321	     -8.30756141	     41.06133640	    101.04543942
      0.83000000	     -6.56756161	      3.07879071	     -3.42632600	      0.86804034	      0.89434960	     -0.18433604	     15.66765770	     -3.58236762	     -0.71556330	     67.20908973	      1.17301990	     -5.60087623	      1.50437335	     -6.98663943	     22.27290544	      7.80626155	      3.96939315	     22.12794884	      0.38620556	      4.83495425	    -15.85303523	     -6.98663943	     -6.07139382	    -18.48608722	     -7.68986034	     -7.28114294	    -19.76280135	     29.51577757	     47.04667163	    107.65507612	      1.90311497	    -17.37575035	     -8.33872647	     41.13662960	    101.04602721
      0.84000000	     -6.64161796	      3.04432334	     -3.12400254	      0.87734870	      0.89571673	     -0.18394080	     17.53719431	     -3.41333102	     -0.80725098	     68.75991239	      1.20008686	     -4.06961573	     -0.33532852	     -6.99347178	     21.51062802	      7.79895176	      3.91835131	     21.83109909	      0.38102456	      5.58522327	    -15.20706294	     -6.99347178	     -6.26645292	    -19.06178518	     -8.27575463	     -7.36777305	    -19.80340022	     29.73511869	     47.06395420	    107.55626762	      2.03353550	    -17.57559137	     -8.51152592	     41.34956271	    101.05248562
      0.85000000	     -6.63331335	      2.77274562	     -2.70575383	      0.88654195	      0.89726743	     -0.18368909	     19.19312639	     -3.03609312	     -1.11138951	     69.84502063	      1.21902558	     -3.35642899	     -1.92379689	     -7.00130787	     20.73353167	      7.53228448	      3.79785008	     21.68616255	      0.37849494	      6.30107302	    -14.30497722	     -7.00130787	     -6.65609431	    -19.31373250	     -8.95084879	     -7.37308403	    -19.74122642	     29.51493267	     46.85160560	    107.35727515	      2.21019145	    -17.69229440	     -8.69081975	     41.60725673	    101.08228321
      0.86000000	     -6.59677360	      2.38715306	     -2.22140545	      0.89574497	      0.89880840	     -0.18336902	     20.70940813	     -2.50458810	     -1.48980249	     70.50644280	      1.23056957	     -3.33332595	     -4.04242585	     -7.03338737	     20.03589136	      7.03030582	      3.22880448	     21.76831748	      0.37992881	      7.89806272	    -11.94872304	     -7.03338737	     -7.08559880	    -19.41191427	     -9.55377388	     -7.54256719	    -19.57894751	     28.65776762	     46.73953792	    106.65086125	      2.43289984	    -17.69268505	     -9.09307401	     41.91555406	    101.25429665
      0.87000000	     -6.61898602	      2.03287219	     -1.62458874	      0.90488940	      0.90013160	     -0.18335467	     22.20563397	     -2.10333392	     -1.96450593	     70.90013298	      1.23744076	     -2.84016347	     -5.56767007	     -7.05257736	     19.34281294	      6.72311041	      3.32111030	     21.68156350	      0.37841467	      8.56765729	    -11.14729535	     -7.05257736	     -7.46208428	    -19.49522839	    -10.22733008	     -7.67030533	    -19.33386762	     27.58859849	     46.42463314	    106.22371049	      2.66004690	    -17.77581789	     -9.08189632	     42.15579725	    101.41518386
